<svg width="13" height="13" viewBox="0 0 13 13" fill="none" xmlns="http://www.w3.org/2000/svg">
<path d="M4.46875 7.3125C4.46875 7.20476 4.51155 7.10142 4.58774 7.02524C4.66392 6.94905 4.76726 6.90625 4.875 6.90625H8.125C8.23274 6.90625 8.33608 6.94905 8.41226 7.02524C8.48845 7.10142 8.53125 7.20476 8.53125 7.3125C8.53125 7.42024 8.48845 7.52358 8.41226 7.59976C8.33608 7.67595 8.23274 7.71875 8.125 7.71875H4.875C4.76726 7.71875 4.66392 7.67595 4.58774 7.59976C4.51155 7.52358 4.46875 7.42024 4.46875 7.3125Z" fill="#292B33" fill-opacity="0.9"/>
<path d="M11.375 3.65625V11.375C11.375 11.806 11.2038 12.2193 10.899 12.524C10.5943 12.8288 10.181 13 9.75 13H3.25C2.81902 13 2.4057 12.8288 2.10095 12.524C1.7962 12.2193 1.625 11.806 1.625 11.375V1.625C1.625 1.19402 1.7962 0.780698 2.10095 0.475951C2.4057 0.171205 2.81902 0 3.25 0L7.71875 0L11.375 3.65625ZM8.9375 3.65625C8.61427 3.65625 8.30427 3.52785 8.07571 3.29929C7.84715 3.07073 7.71875 2.76073 7.71875 2.4375V0.8125H3.25C3.03451 0.8125 2.82785 0.898102 2.67548 1.05048C2.5231 1.20285 2.4375 1.40951 2.4375 1.625V11.375C2.4375 11.5905 2.5231 11.7972 2.67548 11.9495C2.82785 12.1019 3.03451 12.1875 3.25 12.1875H9.75C9.96549 12.1875 10.1722 12.1019 10.3245 11.9495C10.4769 11.7972 10.5625 11.5905 10.5625 11.375V3.65625H8.9375Z" fill="#292B33" fill-opacity="0.9"/>
</svg>
